<svg xmlns="http://www.w3.org/2000/svg" viewBox="0 0 209.249 249.808" height="144" width="127"><defs><clipPath id="a" clipPathUnits="userSpaceOnUse"><path d="M0 850.394h850.394V0H0z"/></clipPath></defs><g clip-path="url(#a)" transform="matrix(1.33333 0 0 -1.33333 -463.99 737.569)" fill="#1d1d1b"><path d="M367.835 513.492c-10.94 0-19.843 8.9-19.843 19.842 0 10.942 8.903 19.843 19.843 19.843 6.235 0 11.987-2.86 15.78-7.845a2.979 2.979 0 10-4.741-3.61c-2.657 3.493-6.681 5.496-11.039 5.496-7.655 0-13.883-6.228-13.883-13.884 0-7.654 6.228-13.883 13.883-13.883 4.055 0 7.899 1.776 10.548 4.874a2.982 2.982 0 004.201.329 2.98 2.98 0 00.328-4.202 19.817 19.817 0 00-15.077-6.96m54.016 12.044a13.797 13.797 0 00-8.878-5.837c-7.52-1.44-14.803 3.508-16.24 11.026-1.438 7.518 3.51 14.803 11.026 16.242.88.168 1.76.25 2.637.25 2.75 0 5.44-.821 7.767-2.401a13.79 13.79 0 005.836-8.876 13.785 13.785 0 00-2.148-10.404m8 11.523a19.706 19.706 0 01-8.341 12.687 19.708 19.708 0 01-14.87 3.072c-10.744-2.054-17.813-12.468-15.76-23.212 1.817-9.491 10.154-16.114 19.479-16.114 1.23 0 2.48.115 3.733.356a19.718 19.718 0 0112.689 8.34 19.717 19.717 0 013.07 14.87"/><path d="M409.245 536.157a3.038 3.038 0 112.242-5.648 3.038 3.038 0 11-2.242 5.648m47.172-22.665h-18.586a3.008 3.008 0 000 6.014h18.586a5.523 5.523 0 015.518 5.516v16.623a5.524 5.524 0 01-5.518 5.518h-18.586a3.008 3.008 0 000 6.014h18.586c6.359 0 11.531-5.173 11.531-11.532v-16.623c0-6.357-5.172-11.53-11.531-11.53m-102.458-49.294c-1.656 0-3 1.344-3 3v33.146a3.001 3.001 0 006 0v-33.146a3 3 0 00-3-3m54.136.06a3 3 0 00-3 3v24.967a5.511 5.511 0 01-5.504 5.505h-12.332a5.511 5.511 0 01-5.504-5.505v-24.967a3 3 0 10-6 0v24.967c0 6.345 5.16 11.505 11.504 11.505h12.332c6.344 0 11.504-5.16 11.504-11.505v-24.967a3 3 0 00-3-3m92.814-.24h-26.158c-1.607 0-2.908 1.343-2.908 3s1.301 3 2.908 3h26.158c1.606 0 2.908-1.343 2.908-3s-1.302-3-2.908-3m0-98.1h-13.075c-1.607 0-2.908 1.343-2.908 3s1.301 3 2.908 3h13.075c1.606 0 2.908-1.343 2.908-3s-1.302-3-2.908-3m-23.346-.021a3.062 3.062 0 10-1.15 6.015 3.062 3.062 0 001.15-6.015m-103.05 88.644H362.18c-6.344 0-11.504-5.16-11.504-11.504V418.07a3 3 0 116 0v24.967a5.51 5.51 0 005.504 5.504h12.333a5.51 5.51 0 005.504-5.504V418.07a3 3 0 016 0v24.967c0 6.343-5.16 11.504-11.504 11.504"/><path d="M366.864 435.873a3.06 3.06 0 113.06-5.301 3.06 3.06 0 01-3.06 5.301m82.447.356a3.062 3.062 0 113.582-2.432 3.061 3.061 0 01-3.582 2.432"/><path d="M456.052 454.541H443.72c-6.344 0-11.504-5.16-11.504-11.504V418.07a3 3 0 116 0v24.967a5.51 5.51 0 005.504 5.504h12.332a5.51 5.51 0 005.504-5.504V418.07a3 3 0 016 0v24.967c0 6.343-5.16 11.504-11.504 11.504m37.373-39.53h-18.543a3 3 0 100 6h18.543a5.51 5.51 0 015.504 5.503v16.584a5.51 5.51 0 01-5.504 5.504h-18.543a3 3 0 000 6h18.543c6.344 0 11.504-5.16 11.504-11.504v-16.584c0-6.344-5.16-11.504-11.504-11.504M368.28 388.268a3.062 3.062 0 013.061-5.302 3.066 3.066 0 011.121 4.182 3.062 3.062 0 01-4.182 1.12"/><path d="M382.972 371.82h-20.604a5.51 5.51 0 00-5.504 5.505v16.584a5.51 5.51 0 005.504 5.504h20.604a3 3 0 010 6h-20.604c-6.345 0-11.504-5.16-11.504-11.504v-16.584c0-6.344 5.159-11.504 11.504-11.504h20.604a3 3 0 010 6m45.836-5.938a3 3 0 00-3 3v27l-4.984-8.21c-1.695-2.787-4.252-4.438-7.022-4.532a6.8 6.8 0 00-.248-.004c-2.68 0-5.238 1.465-7.06 4.05l-7.001 9.944v-28.248a3 3 0 10-6 0v29.215c0 4.715 1.919 6.311 3.532 6.823 1.608.508 4.098.312 6.816-3.545l7.56-10.734c.688-.98 1.492-1.494 2.199-1.505.708.024 1.473.626 2.096 1.65l6.133 10.104c2.483 4.084 4.9 4.412 6.492 3.967 1.59-.447 3.487-1.98 3.487-6.76v-29.215a3 3 0 00-3-3m45.793 38.793a2.999 2.999 0 01-4.23-.328l-9.217-12.023c-1.303-1.522-3.004-2.36-4.791-2.36h-.006c-1.79.002-3.491.843-4.792 2.37l-9.17 12.008a3.001 3.001 0 11-4.566-3.893l9.169-12.009c1.752-2.053 3.947-3.436 6.352-4.07v-15.488a3 3 0 116 0v15.48c2.409.63 4.605 2.01 6.36 4.061l9.219 12.023a3 3 0 01-.328 4.23m7.918 108.704a3.062 3.062 0 00-1.15 6.014 3.065 3.065 0 003.583-2.433 3.063 3.063 0 00-2.433-3.58m18.442 0a3.062 3.062 0 10-1.15 6.014 3.062 3.062 0 001.15-6.015m-54.853-49.363c-11.016 0-19.978 8.962-19.978 19.978 0 11.015 8.962 19.977 19.978 19.977a19.873 19.873 0 0013.845-5.594 2.999 2.999 0 10-4.16-4.322 13.91 13.91 0 01-9.685 3.916c-7.707 0-13.978-6.27-13.978-13.977 0-7.707 6.271-13.978 13.978-13.978 6.22 0 11.572 4.12 13.351 9.83H446.63a3 3 0 100 6l16.427-.012a3.005 3.005 0 002.185-.954 3.01 3.01 0 00.798-2.247c-.704-10.439-9.459-18.617-19.932-18.617m-35.39-49.19c-11.016 0-19.978 8.963-19.978 19.979 0 11.015 8.962 19.977 19.979 19.977 6.275 0 12.066-2.878 15.889-7.897a2.998 2.998 0 00-.571-4.204 3 3 0 00-4.204.569c-2.676 3.514-6.727 5.532-11.114 5.532-7.707 0-13.98-6.27-13.98-13.977 0-7.707 6.273-13.978 13.98-13.978a13.96 13.96 0 0110.618 4.907 3 3 0 004.562-3.898 19.954 19.954 0 00-15.18-7.01"/></g></svg>
